<svg width="1280" height="720" xmlns="http://www.w3.org/2000/svg" xmlns:xlink="http://www.w3.org/1999/xlink" overflow="hidden"><defs><clipPath id="clip0"><rect x="0" y="0" width="1280" height="720"/></clipPath></defs><g clip-path="url(#clip0)"><rect x="0" y="0" width="1280" height="720" fill="#FFFFFF"/><path d="M2 17.3382C2 7.76259 9.76259-5.09253e-15 19.3382-5.09253e-15L1264.66 0C1274.24-5.09253e-15 1282 7.76259 1282 17.3382L1282 702.662C1282 712.237 1274.24 720 1264.66 720L19.3382 720C9.76259 720 2 712.237 2 702.662Z" fill="#EAE7F5" fill-rule="evenodd" fill-opacity="0.439216"/><path d="M233 136.423C233 126.248 241.248 118 251.423 118L550.577 118C560.752 118 569 126.248 569 136.423L569 387.577C569 397.752 560.752 406 550.577 406L251.423 406C241.248 406 233 397.752 233 387.577Z" fill="#FFFFFF" fill-rule="evenodd" fill-opacity="0.439216"/><path d="M651 437.423C651 427.248 659.248 419 669.423 419L1247.58 419C1257.75 419 1266 427.248 1266 437.423L1266 688.577C1266 698.752 1257.75 707 1247.58 707L669.423 707C659.248 707 651 698.752 651 688.577Z" fill="#FFFFFF" fill-rule="evenodd" fill-opacity="0.439216"/><path d="M233 436.423C233 426.248 241.248 418 251.423 418L623.577 418C633.752 418 642 426.248 642 436.423L642 687.577C642 697.752 633.752 706 623.577 706L251.423 706C241.248 706 233 697.752 233 687.577Z" fill="#FFFFFF" fill-rule="evenodd" fill-opacity="0.439216"/><path d="M579 135.423C579 125.248 587.248 117 597.423 117L896.577 117C906.752 117 915 125.248 915 135.423L915 386.577C915 396.752 906.752 405 896.577 405L597.423 405C587.248 405 579 396.752 579 386.577Z" fill="#FFFFFF" fill-rule="evenodd" fill-opacity="0.439216"/><path d="M925 136.423C925 126.248 933.248 118 943.423 118L1242.58 118C1252.75 118 1261 126.248 1261 136.423L1261 387.577C1261 397.752 1252.75 406 1242.58 406L943.423 406C933.248 406 925 397.752 925 387.577Z" fill="#FFFFFF" fill-rule="evenodd" fill-opacity="0.439216"/><path d="M10 580.572C10 575.838 13.8378 572 18.572 572L216.428 572C221.162 572 225 575.838 225 580.572L225 697.428C225 702.162 221.162 706 216.428 706L18.572 706C13.8378 706 10 702.162 10 697.428Z" fill="#FFFFFF" fill-rule="evenodd" fill-opacity="0.439216"/><path d="M10 428.636C10 423.866 13.8665 420 18.636 420L216.364 420C221.134 420 225 423.866 225 428.636L225 546.364C225 551.134 221.134 555 216.364 555L18.636 555C13.8665 555 10 551.134 10 546.364Z" fill="#FFFFFF" fill-rule="evenodd" fill-opacity="0.439216"/><path d="M7 277.636C7 272.866 10.8665 269 15.636 269L213.364 269C218.134 269 222 272.866 222 277.636L222 395.364C222 400.134 218.134 404 213.364 404L15.636 404C10.8665 404 7 400.134 7 395.364Z" fill="#FFFFFF" fill-rule="evenodd" fill-opacity="0.439216"/><path d="M10 126.636C10 121.866 13.8665 118 18.636 118L216.364 118C221.134 118 225 121.866 225 126.636L225 244.364C225 249.134 221.134 253 216.364 253L18.636 253C13.8665 253 10 249.134 10 244.364Z" fill="#FFFFFF" fill-rule="evenodd" fill-opacity="0.439216"/><path d="M10 14.8858C10 11.6352 12.6352 9 15.8858 9L1260.11 9C1263.36 9 1266 11.6352 1266 14.8858L1266 95.1142C1266 98.3648 1263.36 101 1260.11 101L15.8858 101C12.6352 101 10 98.3648 10 95.1142Z" fill="#FFFFFF" fill-rule="evenodd" fill-opacity="0.439216"/><g><g><g><path d="M45.6875 11.6875 45.6875 37.7188 5.3125 37.7188 5.3125 11.6875 2.125 11.6875 2.125 41.4375 20.7188 41.4375C20.7188 42.3406 21.4094 43.0312 22.3125 43.0312L28.6875 43.0312C29.5906 43.0312 30.2812 42.3406 30.2812 41.4375L48.875 41.4375 48.875 11.6875 45.6875 11.6875Z" fill="#0F497E" transform="matrix(1 0 0 1.09804 5 178)"/><path d="M43.5625 8.5 7.4375 8.5 7.4375 35.5938 43.5625 35.5938 43.5625 8.5ZM10.625 11.6875 24.4375 11.6875 24.4375 32.4062 10.625 32.4062 10.625 11.6875ZM40.375 32.4062 26.5625 32.4062 26.5625 11.6875 40.375 11.6875 40.375 32.4062Z" fill="#0F497E" transform="matrix(1 0 0 1.09804 5 178)"/><path d="M29.75 17 37.1875 17 37.1875 18.5938 29.75 18.5938Z" fill="#0F497E" transform="matrix(1 0 0 1.09804 5 178)"/><path d="M29.75 20.1875 37.1875 20.1875 37.1875 21.7812 29.75 21.7812Z" fill="#0F497E" transform="matrix(1 0 0 1.09804 5 178)"/><path d="M29.75 23.375 34.9031 23.375 34.9031 24.9688 29.75 24.9688Z" fill="#0F497E" transform="matrix(1 0 0 1.09804 5 178)"/></g></g></g><g><g><g><path d="M33.6067 27.3333 39.0467 32.7733C40.3813 31.2576 41.1843 29.3474 41.3333 27.3333Z" fill="#0F497E" transform="matrix(1.125 0 0 1 -5 323)"/><path d="M31.3333 26.94 31.3333 17.3667C26.1908 17.7202 22.3086 22.1757 22.6622 27.3182 23.0157 32.4607 27.4712 36.3429 32.6137 35.9894 34.6439 35.8498 36.5727 35.0505 38.1067 33.7133Z" fill="#0F497E" transform="matrix(1.125 0 0 1 -5 323)"/><path d="M32.6667 26 41.3333 26C40.9959 21.3663 37.3017 17.6863 32.6667 17.3667Z" fill="#0F497E" transform="matrix(1.125 0 0 1 -5 323)"/><path d="M50.6667 14.6667 50.6667 38.6667 13.3333 38.6667 13.3333 14.6667ZM56 40 54.6667 40 54.6667 12.6667 56 12.6667C56.7364 12.6667 57.3333 12.0697 57.3333 11.3333 57.3333 10.5969 56.7364 10 56 10L33.3333 10 33.3333 8.66667C33.3333 7.93027 32.7364 7.33333 32 7.33333 31.2636 7.33333 30.6667 7.93027 30.6667 8.66667L30.6667 10 8 10C7.2636 10 6.66667 10.5969 6.66667 11.3333 6.66667 12.0697 7.2636 12.6667 8 12.6667L9.33333 12.6667 9.33333 40 8 40C7.2636 40 6.66667 40.5969 6.66667 41.3333 6.66667 42.0697 7.2636 42.6667 8 42.6667L28.36 42.6667 18.0933 52.9333C17.5723 53.4599 17.5768 54.309 18.1033 54.83 18.6299 55.351 19.479 55.3465 20 54.82L30.6667 44.1533 30.6667 56C30.6667 56.7364 31.2636 57.3333 32 57.3333 32.7364 57.3333 33.3333 56.7364 33.3333 56L33.3333 44.1333 44 54.8C44.521 55.321 45.3657 55.321 45.8867 54.8 46.4077 54.279 46.4077 53.4343 45.8867 52.9133L35.64 42.6667 56 42.6667C56.7364 42.6667 57.3333 42.0697 57.3333 41.3333 57.3333 40.5969 56.7364 40 56 40Z" fill="#0F497E" transform="matrix(1.125 0 0 1 -5 323)"/></g></g></g></g></svg>